/* XPM */
static char *_d00a884f95f4403f72f8c8600895994[] = {
/* columns rows colors chars-per-pixel */
"32 32 76 1 ",
"  c #7E7E7E",
". c #F51E1E",
"X c #F81D1D",
"o c #ED2C2C",
"O c #F52121",
"+ c #FA2323",
"@ c #F52A2A",
"# c #ED3131",
"$ c #EE3B3B",
"% c #F43030",
"& c #F23C3C",
"* c #BC7E7E",
"= c #EB4C4C",
"- c #EA5252",
"; c #CF6464",
": c #CF6E6E",
"> c #DC6262",
", c #CE7B7B",
"< c #DE7676",
"1 c #D07B7B",
"2 c #E26F6F",
"3 c #E86D6D",
"4 c #7A9595",
"5 c #848585",
"6 c #818B8B",
"7 c #8C8C8C",
"8 c #908F8F",
"9 c #869393",
"0 c #8B9393",
"q c #849C9C",
"w c #8D9C9C",
"e c #939393",
"r c #9B9696",
"t c #939C9C",
"y c #9B9B9B",
"u c #A08F8F",
"i c #B38585",
"p c #BB8686",
"a c #B78989",
"s c #BA8B8B",
"d c #A39393",
"f c #AD9393",
"g c #A39D9D",
"h c #AF9999",
"j c #B69393",
"k c #B39B9B",
"l c #BE9898",
"z c #87A2A2",
"x c #8EA1A1",
"c c #8FABAB",
"v c #95A4A4",
"b c #98A1A1",
"n c #9BAAAA",
"m c #A3A3A3",
"M c #ADA3A3",
"N c #A2AEAE",
"B c #ACACAC",
"V c #B4A3A3",
"C c #B0AFAF",
"Z c #BFACAC",
"A c #A3B0B0",
"S c #B3B3B3",
"D c #BBBBBB",
"F c #CD8C8C",
"G c #D18484",
"H c #C19A9A",
"J c #DA9494",
"K c #D89898",
"L c #C2A7A7",
"P c #C9A3A3",
"I c #C3ABAB",
"U c #C8AAAA",
"Y c #C3C3C3",
"T c #CBCBCB",
"R c gray82",
"E c None",
/* pixels */
"EEEEEEEEEEEEEEEEEEEEEEEEEEEEEEEE",
"EEEEEEEEEEEEEESCCCSEEEEEEEEEEEEE",
"EEEEEEEEEEEBmbyyymmmBCEEEEEEEEEE",
"EEEEEEEEEmytyryyyyyyymmCEEEEEEEE",
"EEEEEEECyeeyyyyyryyyymyyCDEEEEEE",
"EEEEEEBr8yrrreeeerytyymmymDEEEEE",
"EEEEEBe8etee0eerwrrryryybymDEEEE",
"EEEEBe78r888ghmmkMtryrtygmymYEEE",
"EEEEy788788zaXjM+GceeyryyymyCEEE",
"EEEm777887dp;.:,O>HVAttyyygbyDEE",
"EEEr8e7789i%#o##oo%@-PnryrymyBEE",
"EEB78e7777rb*.Fk.,CF$.KnrrtyymDE",
"EEy7r7777779pXshO1xxS=OItrytyyCE",
"EEe8e6777789*XshO,tewL.3AeyrmyBE",
"EC87e5777779*XahO1xe8A-&SetryrmT",
"EC7775577779*XahO,we8n2@I0rrrybT",
"EB7777575759*Xsh.1we8v<OLwrerrbY",
"EB777 755779*.ahO1w88n2@Z8trtrbT",
"ES7885757779*Xph.,w87A-&C0eeyymR",
"EEe585555567*XshO,w80L.3A8errrBE",
"EEg585555756*Xah.1q0S=OI08eey0SE",
"EEC5775555et*.skO1BF$.Jv8eerrrYE",
"EEEe585554i%#o##oo#@-Pv78eeyrmEE",
"EEEB 875 5u*;.:,O>HVn07888e08YEE",
"EEEEy e74  9pXjM+Gq5670808r7BEEE",
"EEEED8487555rfryhM777777r87yREEE",
"EEEEES5 7855 55565777778r8yTEEEE",
"EEEEEEZ755e75555555578re6yTEEEEE",
"EEEEEEEYy558e55588888877BREEEEEE",
"EEEEEEEEECr5  65578677yYEEEEEEEE",
"EEEEEEEEEEEDmy8888ryBYEEEEEEEEEE",
"EEEEEEEEEEEEEETYYYREEEEEEEEEEEEE"
};
