/* XPM */
static char *_79615f3cb3c43e9f1dd5fec66a96794[] = {
/* columns rows colors chars-per-pixel */
"16 16 130 2 ",
"   c #EA3B3B",
".  c #EB3C3C",
"X  c #AF7B7B",
"o  c #BF7070",
"O  c #B27D7D",
"+  c #DB5252",
"@  c #DA5454",
"#  c #DE5454",
"$  c #DE5555",
"%  c #D95858",
"&  c #D95959",
"*  c #E14646",
"=  c #E44C4C",
"-  c #E44D4D",
";  c #EB5454",
":  c #ED5454",
">  c #EC5555",
",  c #EC5656",
"<  c #CD6767",
"1  c #CE6767",
"2  c #CB6868",
"3  c #CC6969",
"4  c #D26161",
"5  c #D36161",
"6  c #DF6565",
"7  c #DF6666",
"8  c #C07272",
"9  c #C37777",
"0  c #C57575",
"q  c #C67575",
"w  c #C97373",
"e  c #CB7474",
"r  c #CC7575",
"t  c #CD7575",
"y  c #C47878",
"u  c #7F8787",
"i  c #7CA7A7",
"p  c #838383",
"a  c #818686",
"s  c gray52",
"d  c #858787",
"f  c #868686",
"g  c gray53",
"h  c #818B8B",
"j  c #858888",
"k  c #878989",
"l  c #858A8A",
"z  c #808F8F",
"x  c #888888",
"c  c #888989",
"v  c #898989",
"b  c #898A8A",
"n  c gray54",
"m  c #8B8A8A",
"M  c #8A8B8B",
"N  c #8B8B8B",
"B  c gray55",
"V  c #8D8D8D",
"C  c #8C8E8E",
"Z  c #8E8E8E",
"A  c gray56",
"S  c #928D8D",
"D  c #938E8E",
"F  c #8A9090",
"G  c #8D9191",
"H  c #8E9090",
"J  c #859898",
"K  c #879A9A",
"L  c #8F9999",
"P  c #8F9E9E",
"I  c #909090",
"U  c #919090",
"Y  c gray57",
"T  c #909292",
"R  c #909393",
"E  c #929292",
"W  c #939393",
"Q  c gray58",
"!  c #959595",
"~  c #959696",
"^  c gray59",
"/  c #969797",
"(  c #979797",
")  c #919999",
"_  c #939898",
"`  c #959999",
"'  c #979898",
"]  c #949A9A",
"[  c #959B9B",
"{  c gray60",
"}  c #9A9999",
"|  c #9A9A9A",
" . c #9B9B9B",
".. c #9C9B9B",
"X. c gray61",
"o. c #9D9D9D",
"O. c gray62",
"+. c #A88585",
"@. c #A58E8E",
"#. c #AE8B8B",
"$. c #B98080",
"%. c #BE8585",
"&. c #A19292",
"*. c #A69393",
"=. c #A79494",
"-. c #AD9696",
";. c #A49999",
":. c #A89999",
">. c #A89F9F",
",. c #81ACAC",
"<. c #93A3A3",
"1. c #99A1A1",
"2. c #9BA3A3",
"3. c #9FA1A1",
"4. c #A0A0A0",
"5. c gray63",
"6. c #A2A2A2",
"7. c gray64",
"8. c #A4A4A4",
"9. c #A5A5A5",
"0. c #A7A7A7",
"q. c #A9A9A9",
"w. c gray67",
"e. c gray68",
"r. c gray69",
"t. c #B1B1B1",
"y. c #B4B4B4",
"u. c gray73",
"i. c #BCBCBC",
"p. c None",
/* pixels */
"p.p.p.p.p.p.p.p.p.p.p.p.p.p.p.p.",
"p.p.p.p.p.p.0.9.0.e.p.p.p.p.p.p.",
"p.p.p.p.4...X.{ X.X.9.e.p.p.p.p.",
"p.p.p.{ ^ ^ ) ) ] { X.X.0.p.p.p.",
"p.p.{ V Y ) #.:.-.P ] X.X.w.p.p.",
"p.X.V V Y 8   $ = %.4.[ X.;.t.p.",
"p.Y Y n G O * 5 % t ; >.] X.9.p.",
"4.Y V n M R @ y 3 ,.e 7 <.{ 4.u.",
"..B n g n D + 0 1 K *.: 2.^ { y.",
"..B g d k S + 0 1 J *.: 1.] { y.",
"4.V n d d V @ 9 2 i w 7 P ^ X.i.",
"p.Y d p k X * 5 % t : ;.G ^ 9.p.",
"p.X.n d d o   $ - O ] G Y Y t.p.",
"p.p.^ g s z +.&.@.z n Y V 9.p.p.",
"p.p.p.^ n n a a n B V Y 4.p.p.p.",
"p.p.p.p.4.Y n g V Y { e.p.p.p.p."
};
