/* XPM */
static char *c38ba5ff389b42c9d6b68fff20de54eb[] = {
/* columns rows colors chars-per-pixel */
"64 64 108 2 ",
"   c #7D7D7D",
".  c #EF1F1F",
"X  c #F51616",
"o  c #F21D1D",
"O  c #EF2424",
"+  c #EE2B2B",
"@  c #F12323",
"#  c #F02828",
"$  c #EC3131",
"%  c #E63E3E",
"&  c #EB3A3A",
"*  c #DC5A5A",
"=  c #E64242",
"-  c #E94242",
";  c #E54949",
":  c #EA4F4F",
">  c #E35757",
",  c #E95454",
"<  c #E25959",
"1  c #EA5B5B",
"2  c #DB6666",
"3  c #CA7272",
"4  c #C47E7E",
"5  c #CC7B7B",
"6  c #DA7171",
"7  c #D47C7C",
"8  c #E56666",
"9  c #EA6363",
"0  c #E16D6D",
"q  c #EA6E6E",
"w  c #E57474",
"e  c #E97373",
"r  c #E57878",
"t  c #858585",
"y  c #878B8B",
"u  c #8B8B8B",
"i  c #908F8F",
"p  c #8D9494",
"a  c #8F9D9D",
"s  c #939393",
"d  c #989797",
"f  c #929A9A",
"g  c #9A9A9A",
"h  c #BF8787",
"j  c #A89E9E",
"k  c #B59696",
"l  c #B59C9C",
"z  c #B89999",
"x  c #94A3A3",
"c  c #9DA3A3",
"v  c #94ACAC",
"b  c #9DADAD",
"n  c #9DB3B3",
"m  c #A2A2A2",
"M  c #A8A4A4",
"N  c #A1ADAD",
"B  c #ACACAC",
"V  c #B5A1A1",
"C  c #BBA5A5",
"Z  c #B6AEAE",
"A  c #B9ABAB",
"S  c #A2B1B1",
"D  c #AEB4B4",
"F  c #A6BCBC",
"G  c #ADBBBB",
"H  c #B3B3B3",
"J  c #B2BCBC",
"K  c #BABABA",
"L  c #C28383",
"P  c #CB8B8B",
"I  c #D58787",
"U  c #D48C8C",
"Y  c #C29393",
"T  c #CF9191",
"R  c #D29191",
"E  c #DC9C9C",
"W  c #E18282",
"Q  c #E88484",
"!  c #E78989",
"~  c #D4A2A2",
"^  c #D3ACAC",
"/  c #C2BABA",
"(  c #D3B3B3",
")  c #DDB2B2",
"_  c #D4BBBB",
"`  c #DCBCBC",
"'  c #E3A5A5",
"]  c #E1A8A8",
"[  c #AEC2C2",
"{  c #ACCCCC",
"}  c #B4C4C4",
"|  c #BCC3C3",
" . c #B7C9C9",
".. c #BBCBCB",
"X. c #C3C3C3",
"o. c #CBC6C6",
"O. c #C4CECE",
"+. c #CBCBCB",
"@. c #D2C3C3",
"#. c #DBC6C6",
"$. c #D0CCCC",
"%. c #C5D2D2",
"&. c #CBD7D7",
"*. c #CFD9D9",
"=. c #D5D5D5",
"-. c #D1D8D8",
";. c #D9D9D9",
":. c None",
/* pixels */
":.:.:.:.:.:.:.:.:.:.:.:.:.:.:.:.:.:.:.:.:.:.:.:.:.:.:.:.:.:.:.:.:.:.:.:.:.:.:.:.:.:.:.:.:.:.:.:.:.:.:.:.:.:.:.:.:.:.:.:.:.:.:.:.",
":.:.:.:.:.:.:.:.:.:.:.:.:.:.:.:.:.:.:.:.:.:.:.:.:.:.:.:.:.:.:.:.:.:.:.:.:.:.:.:.:.:.:.:.:.:.:.:.:.:.:.:.:.:.:.:.:.:.:.:.:.:.:.:.",
":.:.:.:.:.:.:.:.:.:.:.:.:.:.:.:.:.:.:.:.:.:.:.:.:.:.:.:.D K K D K D K K K :.:.:.:.:.:.:.:.:.:.:.:.:.:.:.:.:.:.:.:.:.:.:.:.:.:.:.",
":.:.:.:.:.:.:.:.:.:.:.:.:.:.:.:.:.:.:.:.:.:.:.:.:.H H B B M M M M M B B B B K K :.:.:.:.:.:.:.:.:.:.:.:.:.:.:.:.:.:.:.:.:.:.:.:.",
":.:.:.:.:.:.:.:.:.:.:.:.:.:.:.:.:.:.:.:.:.:.B B M c g d d s d d d d g g g g m M B H K :.:.:.:.:.:.:.:.:.:.:.:.:.:.:.:.:.:.:.:.:.",
":.:.:.:.:.:.:.:.:.:.:.:.:.:.:.:.:.:.:.H B B g d i d d d f g d g g g g g g g g g g m m Z K K :.:.:.:.:.:.:.:.:.:.:.:.:.:.:.:.:.:.",
":.:.:.:.:.:.:.:.:.:.:.:.:.:.:.:.:.H D M g i i d g g g g m m g g d d g m g g g g g g g g m B K K :.:.:.:.:.:.:.:.:.:.:.:.:.:.:.:.",
":.:.:.:.:.:.:.:.:.:.:.:.:.:.:.:.D m d i i d s d g g g g g g g d f d m c m g g g g m m g g g m H K :.:.:.:.:.:.:.:.:.:.:.:.:.:.:.",
":.:.:.:.:.:.:.:.:.:.:.:.:.:.H B g i i s i g m i g g m g g g g s d d g m g g g g g m m g g g g g M K X.:.:.:.:.:.:.:.:.:.:.:.:.:.",
":.:.:.:.:.:.:.:.:.:.:.:.:.H M i i i g f d g m g g d d f g d f d g d d d d g g g m g m g m m m g g g K X.:.:.:.:.:.:.:.:.:.:.:.:.",
":.:.:.:.:.:.:.:.:.:.:.:.D m i i i g g g g g f d i d d s d d d d d d g d g g d g g g g m m m g m g g g H X.:.:.:.:.:.:.:.:.:.:.:.",
":.:.:.:.:.:.:.:.:.:.:.H g u i i i g g g d i s s s s s s s d s d d d f d d d g g g g g g g m g m m m g g B X.:.:.:.:.:.:.:.:.:.:.",
":.:.:.:.:.:.:.:.:.:.D c i i s f i s f g s i s s i d s d d d d d d d g f d g g d g g d g g g m m g g m g g K X.:.:.:.:.:.:.:.:.:.",
":.:.:.:.:.:.:.:.:.Z m u i i i g g g i i s s i s s i s i i d i s d i i d d d d g d g g g g g g g g m M g g g H X.:.:.:.:.:.:.:.:.",
":.:.:.:.:.:.:.:.H M u u u i i i g i i i i s i d M N S S B d B G G G K m d d g f g g d g g g g g g M m c m g g K o.:.:.:.:.:.:.:.",
":.:.:.:.:.:.:.:.B i u i i i i i i p i i s i i f V * * 2 Z f H 6 * > ~ S i g d d d f g g g g g g g g m m g g g c X.:.:.:.:.:.:.:.",
":.:.:.:.:.:.:.H d t i i g i i i i i i p i i i a z @ @ @ C a D - X X I S i d d g f d g g d g g g g g m g m m g g B X.:.:.:.:.:.:.",
":.:.:.:.:.:.H m y i u i u i u i i i i i s a f x l + # $ A b J ; @ @ R F f f s s d d d d g d g g g g g m m m m g d K o.:.:.:.:.:.",
":.:.:.:.:.:.B i t u u u u u i u u i u i m k k l h + + $ Y C C = # @ 7 / / X. .S g d d g g d g g g g g g m g g g g m X.:.:.:.:.:.",
":.:.:.:.:.H m t y i i u u i u i i i i p j & # + + + + + + + # + + + + $ & ; 8 E o. .c i d g d g g g g g g c M m g g K o.:.:.:.:.",
":.:.:.:.:.B i y i g g u u u i u i i u i j + o @ @ + + + @ . . + + + # o . . . . & W +.G s d g f g g g g g g m c g g m X.:.:.:.:.",
":.:.:.:.:.m t u g i g i u u u i u u i i M L 4 L 3 + + + 5 P P % + # 2 I 0 ; @ @ # o - ` ..d d d g g g g g g M g g g g K :.:.:.:.",
":.:.:.:.H s t u u d d y u u u u i u u i d x x v V + + $ Z n [ ; @ @ T { G | ^ 8 O + O + ) ..i g f g d g g g g g m m g B +.:.:.:.",
":.:.:.:.B u t d u u u u u u u u u u i i u u u f z + + + C f H ; @ @ U b i f b ..~ + # O $ #.D s g g g d g g g m m c g g X.:.:.:.",
":.:.:.:.c t u g g g i u u u u u u u i u i i u f z + + $ C f D ; @ @ U S i s i s  .( + # . , *.g d f g d g g g g g g g g K :.:.:.",
":.:.:.H d t t i d i t y u u u u i u u u u u u a z + # $ C f D ; @ @ U S i s s s i  .E O + . ] [ s d d g g g g g g m g d B +.:.:.",
":.:.:.H i t d u t u u u u t u u u u i y u i u f z + + + C f H ; @ @ I S u s s s i f &., # . 1 &.d d g d d g d g m m m g m +.:.:.",
":.:.:.B t t g d d u u t u u t u u u u u u u u f z + + $ C f D ; # @ U S i s s s s i G E . + + #.m s d f d d g g g g g g g X.:.:.",
":.:.K m t y i i g u u t u u u u u u u u u u u f z + # $ C f D ; @ . U S i i d s s i c @.$ # . ' G s f g d g g d g g g g g K =.:.",
":.:.K M t t u t i t t u u t t u y u u u u u u f z + + $ C f D ; @ O U S u p i s s i s O.: O . Q ..i d d d f d g f g g g d K =.:.",
":.:.K g t u i d i t y t t u u u u u u u u u u p z + # $ C f D ; @ @ R S u s s i s s i ..8 O . q %.i d d d d g d g d g g i K =.:.",
":.:.K g   t t y i t t u u t t u y u y u u u u p z + # $ C f D ; @ @ U S u i s s s i i  .w . O 9 %.i d d d d d d d g g g d H =.:.",
":.:.K g   t u i d t u t t u t u u u u u u u y f k + + $ C f D ; + @ U S u i i s i i i  .r . O 1 O.s d d d d d g d f g g i K $.:.",
":.:.K g t u s d u t t u t t u t t t u t y u y f z + + $ C p D ; @ @ U S u i s i d i i  .w . @ 8 &.i s s s d s f d d d g d D =.:.",
":.:.K m   t t t i t t t u t u u u u u u u t t s z + + + C f D ; @ @ U b i i i i i s i ..8 O . e O.i f d d d s d d d d d d K =.:.",
":.:.K m   t i g u t t t u t t t t t u t u u u f z + # $ C f D ; @ @ U S u i p i i i s O.: O . Q  .i i d i d d d g g d g i K =.:.",
":.:.K B   t f g i t t t t t u u u t u u t u t p z + + + C p D ; @ @ U S u i i i i i x @.$ + O ' G i s s d s d d m g g d d X.=.:.",
":.:.:.H t t t t u t t t u t t t t u t t y u u p z + + $ C f D ; # @ U b u i i i i u G E . + + #.c i s s s s s d g g m d f o.:.:.",
":.:.:.K u   t i i u t t t t y t t u u t t u t f z + + + C p D ; # . U S y i i i i i O., # . 1 &.p i s d d s f s d g g d m +.:.:.",
":.:.:.K s   i g g t t t t t t t t t t u u t y p z + + $ C i D ; @ @ U v y i i i y  .E O + . ' J i i s s s s d f g g f i B =.:.:.",
":.:.:.:.m   t g g i t t t t t t t u t u t u t p z + # $ C p D ; @ @ U b t i u u [ _ + + . : -.f i s s s s d d g m d g i K :.:.:.",
":.:.:.:.H t t t   t t t t t t t t t t u t t t p z + + $ C p D ; @ @ U b t i c  .^ & O # + #.D u i s i s i i s s g g i f +.:.:.:.",
":.:.:.:.K i   u i d u t t t t t t t t t i f a v l + + $ Z n [ ; @ O R { G  .( 8 # # O O ]  .u i s s i s s s g g d d i M =.:.:.:.",
":.:.:.:.:.m   t g t   t t t t t t t t i M L L L 3 + + $ 5 P P % # # 2 I 0 ; + @ O . & ) ..i i i i i i d i f c g g d i K :.:.:.:.",
":.:.:.:.:.K t   t y g i   t t t t t t y m + o @ @ + + + @ . @ + + + # . o . . @ & r $.J i u i i i i s i s s g g g i g =.:.:.:.:.",
":.:.:.:.:.X.m     i d i y   t t t t t y j & @ # + + + $ # + + + + + + $ & : 0 E X. .a t i i i i i p i s i s i s i u K =.:.:.:.:.",
":.:.:.:.:.:.K t     g d u t   t t t t y m k k l L + + $ Y C C = # . 7 / / | G S f t u i i i i i i p i s i s i s i g =.:.:.:.:.:.",
":.:.:.:.:.:.X.B   t u   t d t t t t t y y u i x l + # + A x G ; # O U n u u y t u u i i i i u i i i i i i s s s i K ;.:.:.:.:.:.",
":.:.:.:.:.:.:.K d     i i g i     t t t t t t p z O . @ C i D - . X I b t u u i u u u i i i u i i i i i g g i i m -.:.:.:.:.:.:.",
":.:.:.:.:.:.:.:.K t   u g u t s t t t t t t   i V * * * Z i D 6 1 , ~ N t u u t i u u u u u i i i u i i i i i s +.:.:.:.:.:.:.:.",
":.:.:.:.:.:.:.:.X.B       y t i i   t t t   t u m b S S M u m D S G D g t u u u u u u u u u i i g i i i i u i X.;.:.:.:.:.:.:.:.",
":.:.:.:.:.:.:.:.:.X.M     i s s u u t t t t t t t t t t t y t t t t t t u u u u u u u i u u u f g f p i i t K ;.:.:.:.:.:.:.:.:.",
":.:.:.:.:.:.:.:.:.:.X.m     u t t g d t t t t t t t t t t y t u y t u u y u u u u u u u y i i d f g s i y B ;.:.:.:.:.:.:.:.:.:.",
":.:.:.:.:.:.:.:.:.:.:.X.c       i g u t i t t t t t t t t t t u t u t t u t t u y u y i d u g i d s u t H =.:.:.:.:.:.:.:.:.:.:.",
":.:.:.:.:.:.:.:.:.:.:.:.X.B     t i y   i g t t t t t t t u t t u t u t u u u t y i u g d d i d u u u K =.:.:.:.:.:.:.:.:.:.:.:.",
":.:.:.:.:.:.:.:.:.:.:.:.:.X.H t     t d g u i d d t t t t t t t t t t u t t u i u d i d s d u u t i / ;.:.:.:.:.:.:.:.:.:.:.:.:.",
":.:.:.:.:.:.:.:.:.:.:.:.:.:.+.K d     t i   d t i t t   t t t t i d i i i g i i i u f t d u u t M +.;.:.:.:.:.:.:.:.:.:.:.:.:.:.",
":.:.:.:.:.:.:.:.:.:.:.:.:.:.:.:.+.B t     t y g i t t t u u t t u i i u c g t d g i i u t t s K =.:.:.:.:.:.:.:.:.:.:.:.:.:.:.:.",
":.:.:.:.:.:.:.:.:.:.:.:.:.:.:.:.:.+.X.B t       t t t t d u t t t u i t i s t i i t t t s K +.;.:.:.:.:.:.:.:.:.:.:.:.:.:.:.:.:.",
":.:.:.:.:.:.:.:.:.:.:.:.:.:.:.:.:.:.:.+.X.B d t     t   t t t t t t u t t t t t   u g K +.;.:.:.:.:.:.:.:.:.:.:.:.:.:.:.:.:.:.:.",
":.:.:.:.:.:.:.:.:.:.:.:.:.:.:.:.:.:.:.:.:.:.+.| B g i t                 t u s m K X.-.:.:.:.:.:.:.:.:.:.:.:.:.:.:.:.:.:.:.:.:.:.",
":.:.:.:.:.:.:.:.:.:.:.:.:.:.:.:.:.:.:.:.:.:.:.:.:.+.o.X.K H B B B B H K K X.+.-.:.:.:.:.:.:.:.:.:.:.:.:.:.:.:.:.:.:.:.:.:.:.:.:.",
":.:.:.:.:.:.:.:.:.:.:.:.:.:.:.:.:.:.:.:.:.:.:.:.:.:.:.:.;.;.=.=.=.;.;.;.;.:.:.:.:.:.:.:.:.:.:.:.:.:.:.:.:.:.:.:.:.:.:.:.:.:.:.:.",
":.:.:.:.:.:.:.:.:.:.:.:.:.:.:.:.:.:.:.:.:.:.:.:.:.:.:.:.:.:.:.:.:.:.:.:.:.:.:.:.:.:.:.:.:.:.:.:.:.:.:.:.:.:.:.:.:.:.:.:.:.:.:.:."
};
